<?xml version="1.0" standalone="no"?>
<!DOCTYPE svg PUBLIC "-//W3C//DTD SVG 20010904//EN"
 "http://www.w3.org/TR/2001/REC-SVG-20010904/DTD/svg10.dtd">
<svg version="1.0" xmlns="http://www.w3.org/2000/svg"
 width="512.000000pt" height="512.000000pt" viewBox="0 0 512.000000 512.000000"
 preserveAspectRatio="xMidYMid meet">

<g transform="translate(0.000000,512.000000) scale(0.100000,-0.100000)"
fill="#000000" stroke="none">
<path d="M4925 5105 c-138 -48 -129 -243 13 -285 37 -12 45 -11 89 11 58 29
85 71 85 134 0 103 -93 172 -187 140z"/>
<path d="M1850 5104 c-14 -2 -79 -11 -145 -20 -467 -63 -962 -278 -1340 -584
-108 -87 -321 -294 -341 -332 -34 -64 -6 -161 55 -193 35 -18 103 -20 134 -3
12 6 72 60 132 121 134 133 232 213 390 319 133 89 367 208 520 263 119 44
331 99 469 121 135 22 521 30 658 15 392 -45 776 -183 1097 -394 635 -418 981
-1024 981 -1722 0 -464 -151 -886 -446 -1252 -335 -413 -805 -623 -1329 -592
-214 13 -403 63 -588 155 -378 189 -624 478 -725 853 -23 87 -26 114 -26 291
-1 174 1 204 23 285 23 90 76 233 90 248 5 5 6 -34 4 -85 -17 -332 143 -679
408 -892 243 -194 565 -280 864 -231 399 65 721 335 865 725 90 243 111 306
129 401 75 395 -4 788 -226 1123 -90 137 -282 328 -418 418 -335 220 -683 318
-1088 305 -333 -10 -635 -101 -915 -275 -567 -353 -942 -1067 -942 -1796 0
-693 312 -1348 845 -1772 447 -355 1001 -564 1575 -593 1000 -51 1931 419
2484 1254 60 90 66 104 66 151 0 42 -5 59 -26 84 -53 63 -125 77 -185 37 -19
-12 -70 -75 -114 -139 -114 -165 -182 -246 -319 -383 -466 -463 -1088 -716
-1761 -716 -407 0 -761 83 -1116 262 -614 308 -1001 805 -1126 1447 -23 121
-26 162 -27 352 -1 232 6 297 56 494 126 502 449 931 853 1134 421 211 893
230 1311 52 263 -112 460 -269 600 -476 52 -79 134 -239 134 -264 0 -7 -33 18
-72 56 -227 215 -502 314 -837 301 -154 -6 -251 -23 -397 -72 -228 -76 -410
-190 -595 -375 -180 -179 -292 -358 -363 -580 -56 -171 -67 -240 -73 -430 -4
-148 -2 -194 15 -295 73 -427 311 -781 697 -1040 768 -514 1797 -380 2411 315
309 349 495 752 559 1210 21 150 22 458 1 600 -38 264 -99 468 -210 695 -125
255 -259 438 -478 651 -416 404 -934 659 -1520 750 -98 15 -615 29 -678 18z"/>
<path d="M4175 4955 c-138 -48 -129 -243 13 -285 37 -12 45 -11 89 11 58 29
85 71 85 134 0 103 -93 172 -187 140z"/>
<path d="M4730 4289 c-40 -16 -80 -60 -91 -101 -41 -154 146 -262 249 -144
101 116 -18 300 -158 245z"/>
<path d="M115 303 c-119 -32 -146 -210 -42 -273 97 -60 220 11 220 125 0 95
-91 171 -178 148z"/>
</g>
</svg>
